<svg xmlns="http://www.w3.org/2000/svg" xmlns:xlink="http://www.w3.org/1999/xlink" width="171.66mm" height="171.66mm" viewBox="0 0 405.4934821240267 405.4934821240277">
    <g id="79cf4664-f7e3-462a-a2cb-8515a793d567">
<path style="stroke: rgb(0,0,0); stroke-width: 1; stroke-dasharray: none; stroke-linecap: butt; stroke-dashoffset: 0; stroke-linejoin: round; stroke-miterlimit: 4; fill: rgb(0,0,0); fill-rule: nonzero; opacity: 1;" vector-effect="non-scaling-stroke" transform="matrix(0.999968 0.007939 -0.007939 0.999968 93.10347 181.170553)  translate(-0.408881, 40.71)" d="M6.43,-27.92v1.16c0,2.99 0.79,5.35 2.38,7.1v-1.16c-1.59,-1.75 -2.38,-4.11 -2.38,-7.1zM8.81,-20.82v1.16c1.59,1.75 3.46,3 5.59,3.75v-1.16c-2.13,-0.75 -4,-2 -5.59,-3.75zM14.4,-17.07v1.16c2.13,0.75 4.82,1.48 8.08,2.18v-1.16c-3.26,-0.7 -5.95,-1.43 -8.08,-2.18zM22.48,-14.89v1.16c2.67,0.54 4.6,1.05 5.79,1.54v-1.16c-1.19,-0.49 -3.12,-1 -5.79,-1.54zM28.27,-13.35v1.16c1.18,0.49 1.77,1.21 1.77,2.18v-1.16c0,-0.97 -0.59,-1.69 -1.77,-2.18zM5.79,-13.55v1.16c0,5.31 1.73,9.02 5.2,11.11v-1.16c-3.47,-2.09 -5.2,-5.8 -5.2,-11.11zM10.99,-2.44v1.16c3.47,2.09 8.33,3.14 14.57,3.14v-1.16c-6.24,0 -11.1,-1.05 -14.57,-3.14zM25.56,0.7v1.16c5.35,0 9.63,-1.14 12.83,-3.43v-1.16c-3.2,2.29 -7.48,3.43 -12.83,3.43zM38.39,-2.73v1.16c3.2,-2.29 4.8,-5.8 4.8,-10.53v-1.16c0,4.73 -1.6,8.24 -4.8,10.53zM19.57,-29.37v1.16c0,-0.74 0.46,-1.36 1.37,-1.86v-1.16c-0.91,0.5 -1.37,1.12 -1.37,1.86zM20.94,-31.23v1.16c0.91,-0.51 2.22,-0.76 3.92,-0.76v-1.16c-1.7,0 -3.01,0.25 -3.92,0.76zM24.86,-31.99v1.16c1.75,0 3.05,0.39 3.9,1.16v-1.16c-0.85,-0.77 -2.15,-1.16 -3.9,-1.16zM28.76,-30.83v1.16c0.85,0.78 1.28,1.75 1.28,2.91v-1.16c0,-1.16 -0.43,-2.13 -1.28,-2.91zM30.04,-27.92v1.16v0.23v-1.16zM30.04,-27.69v1.16h12.04v-1.16zM11.52,-37.6c-3.39,2.07 -5.09,5.3 -5.09,9.68c0,2.99 0.79,5.35 2.38,7.1c1.59,1.75 3.46,3 5.59,3.75c2.13,0.75 4.82,1.48 8.08,2.18c2.67,0.54 4.6,1.05 5.79,1.54c1.18,0.49 1.77,1.21 1.77,2.18c0,1.09 -0.53,1.8 -1.6,2.15c-1.07,0.35 -2.41,0.53 -4.04,0.53c-2.21,0 -3.84,-0.34 -4.89,-1.02c-1.05,-0.68 -1.57,-2.03 -1.57,-4.04h-12.15c0,5.31 1.73,9.02 5.2,11.11c3.47,2.09 8.33,3.14 14.57,3.14c5.35,0 9.63,-1.14 12.83,-3.43c3.2,-2.29 4.8,-5.8 4.8,-10.53c-0.04,-2.79 -0.84,-5 -2.39,-6.63c-1.55,-1.63 -3.37,-2.8 -5.44,-3.52c-2.07,-0.72 -4.72,-1.41 -7.94,-2.07c-2.75,-0.54 -4.75,-1.06 -5.99,-1.57c-1.24,-0.5 -1.86,-1.27 -1.86,-2.32c0,-0.74 0.46,-1.36 1.37,-1.86c0.91,-0.51 2.22,-0.76 3.92,-0.76c1.75,0 3.05,0.39 3.9,1.16c0.85,0.78 1.28,1.75 1.28,2.91v0.23h12.04v-0.69c-0.08,-4.07 -1.77,-7.15 -5.06,-9.22c-3.29,-2.07 -7.5,-3.11 -12.62,-3.11c-5.19,0 -9.49,1.04 -12.88,3.11zM46.97,-40.02v1.16v23.91v-1.16zM46.97,-16.11v1.16c0,5.47 1.73,9.63 5.2,12.5v-1.16c-3.47,-2.87 -5.2,-7.03 -5.2,-12.5zM52.17,-3.61v1.16c3.47,2.87 8.39,4.31 14.75,4.31v-1.16c-6.36,0 -11.28,-1.44 -14.75,-4.31zM66.92,0.7v1.16c6.35,0 11.26,-1.44 14.71,-4.31v-1.16c-3.45,2.87 -8.36,4.31 -14.71,4.31zM81.63,-3.61v1.16c3.45,-2.87 5.18,-7.03 5.18,-12.5v-1.16c0,5.47 -1.73,9.63 -5.18,12.5zM86.81,-40.02h-12.86v23.73c0,2.21 -0.61,4 -1.83,5.36c-1.22,1.35 -2.97,2.03 -5.26,2.03c-2.29,0 -4.03,-0.67 -5.24,-2.01c-1.2,-1.33 -1.8,-3.13 -1.8,-5.38v-23.73h-12.85v23.91c0,5.47 1.73,9.63 5.2,12.5c3.47,2.87 8.39,4.31 14.75,4.31c6.35,0 11.26,-1.44 14.71,-4.31c3.45,-2.87 5.18,-7.03 5.18,-12.5zM92.8,0v1.16h12.85v-1.16zM105.65,-14.6v1.16h4.77v-1.16zM110.42,-14.6v1.16l7.1,14.6v-1.16zM117.52,0v1.16h14.42v-1.16zM123.04,-16.75v1.16c2.52,-0.93 4.44,-2.39 5.76,-4.36v-1.16c-1.32,1.97 -3.24,3.43 -5.76,4.36zM128.8,-21.11v1.16c1.32,-1.98 1.98,-4.19 1.98,-6.63v-1.16c0,2.44 -0.66,4.65 -1.98,6.63zM129.24,-33.88c-1.03,-1.88 -2.56,-3.37 -4.6,-4.48c-2.03,-1.11 -4.48,-1.66 -7.35,-1.66h-24.49v40.02h12.85v-14.6h4.77l7.1,14.6h14.42l-8.9,-16.75c2.52,-0.93 4.44,-2.39 5.76,-4.36c1.32,-1.98 1.98,-4.19 1.98,-6.63c0,-2.21 -0.51,-4.26 -1.54,-6.14zM105.65,-30.88v1.16h8.44v-1.16zM114.09,-30.88v1.16c1.01,0 1.86,0.35 2.56,1.04v-1.16c-0.7,-0.69 -1.55,-1.04 -2.56,-1.04zM116.65,-29.84v1.16c0.69,0.7 1.04,1.57 1.04,2.62v-1.16c0,-1.05 -0.35,-1.92 -1.04,-2.62zM116.65,-24.57c-0.7,0.71 -1.55,1.07 -2.56,1.07h-8.44v-7.38h8.44c1.01,0 1.86,0.35 2.56,1.04c0.69,0.7 1.04,1.57 1.04,2.62c0,1.05 -0.35,1.93 -1.04,2.65zM135.43,0v1.16h35.02v-1.16zM148.29,-15.7v1.16h18.61v-1.16zM148.29,-24.89v1.16v-5.53v-1.16zM148.29,-30.42v1.16h21.75v-1.16zM135.43,0h35.02v-9.6h-22.16v-6.1h18.61v-9.19h-18.61v-5.53h21.75v-9.6h-34.61zM174.81,-40.02v1.16v40.02v-1.16zM174.81,0v1.16h11.8v-1.16zM186.61,-19.43v1.16l16.81,19.43v-1.16zM203.42,0v1.16h11.23v-1.16zM214.65,0v-40.02h-11.81v19.72l-16.81,-19.72h-11.22v40.02h11.8v-19.43l16.81,19.43z" stroke-linecap="round"/>
</g>
<g id="0a500bbb-2d55-4054-9c86-7f0af0685106">
<g style="">
		<g id="3733b92b-676b-48eb-a1d2-c11885272838">
<path style="stroke: rgb(193,193,193); stroke-width: 0; stroke-dasharray: none; stroke-linecap: butt; stroke-dashoffset: 0; stroke-linejoin: miter; stroke-miterlimit: 4; fill: rgb(0,0,0); fill-rule: nonzero; opacity: 1;" d="M117.09387,181.36108c5.11984,0.04065 9.32144,1.11404 12.59491,3.21009c3.27346,2.09605 4.93895,5.18937 4.98664,9.25988l-0.00548,0.68998l-12.03961,-0.09559l0.00183,-0.22999c0.00921,-1.15996 -0.41308,-2.13335 -1.25686,-2.92007c-0.84386,-0.77672 -2.14072,-1.17703 -3.89067,-1.19092c-1.69995,-0.0135 -3.01189,0.2261 -3.92591,0.72885c-0.91394,0.49276 -1.37885,1.10909 -1.38472,1.84906c-0.00834,1.04997 0.60553,1.82486 1.84152,2.33469c1.23591,0.51983 3.23172,1.05569 5.97734,1.6175c3.21466,0.68554 5.85909,1.39656 7.92331,2.13297c2.06422,0.73641 3.87487,1.92082 5.41188,3.56308c1.53701,1.64225 2.31944,3.85853 2.33729,6.64876c-0.03755,4.72985 -1.66537,8.22703 -4.88344,10.49156c-3.21808,2.26452 -7.50699,3.37051 -12.85682,3.32803c-6.2398,-0.04954 -11.09131,-1.13809 -14.54461,-3.25557c-3.4533,-2.11748 -5.15379,-5.8411 -5.11163,-11.15093l12.14961,0.09646c-0.01596,2.00994 0.49331,3.36402 1.53788,4.05233c1.04457,0.68831 2.67182,1.04124 4.88175,1.05879c1.62995,0.01294 2.97133,-0.15642 4.04408,-0.49791c1.07274,-0.34149 1.60836,-1.04726 1.61702,-2.13723c0.0077,-0.96997 -0.57656,-1.69463 -1.75264,-2.19398c-1.18607,-0.49943 -3.11196,-1.02474 -5.77759,-1.58592c-3.25434,-0.72586 -5.93846,-1.47719 -8.06243,-2.24408c-2.12398,-0.76689 -3.98399,-2.03169 -5.56005,-3.79426c-1.57606,-1.76257 -2.34729,-4.12876 -2.32356,-7.11867c0.03477,-4.37986 1.76036,-7.59626 5.16669,-9.63928c3.40633,-2.04302 7.71444,-3.04885 12.90428,-3.00765zM179.30657,206.45576c-0.04343,5.46982 -1.8064,9.61596 -5.27907,12.45848c-3.47267,2.84252 -8.39395,4.24349 -14.74375,4.19308c-6.3598,-0.05049 -11.26821,-1.52951 -14.71531,-4.42696c-3.4471,-2.89746 -5.14402,-7.07106 -5.1006,-12.54088l0.18982,-23.90923l12.84959,0.10202l-0.18839,23.72924c-0.01786,2.24993 0.56783,4.05463 1.75723,5.39412c1.19932,1.34956 2.93395,2.03336 5.22387,2.05154c2.28993,0.01818 4.04527,-0.6479 5.27595,-1.98818c1.23076,-1.35027 1.85495,-3.13537 1.87249,-5.3453l0.18839,-23.72924l12.85959,0.1021zM223.36749,195.17521c-0.01937,2.43992 -0.6969,4.64461 -2.03257,6.61407c-1.3356,1.95946 -3.26713,3.40417 -5.79443,4.31413l8.76674,16.82012l-14.41954,-0.11448l-6.98386,-14.6559l-4.76985,-0.03787l-0.11591,14.59953l-12.84959,-0.10202l0.31772,-40.01872l24.48922,0.19443c2.86991,0.02278 5.31546,0.59222 7.33659,1.7183c2.03112,1.12616 3.54924,2.62826 4.56429,4.51638c1.01504,1.88812 1.50875,3.9421 1.49121,6.15203zM210.27378,195.59128c0.00834,-1.04997 -0.33475,-1.92272 -1.01917,-2.62817c-0.6945,-0.69554 -1.54169,-1.05227 -2.55166,-1.06029l-8.43973,-0.06701l-0.05859,7.37976l8.43973,0.06701c1.00997,0.00802 1.8628,-0.34522 2.56841,-1.04964c0.69569,-0.7145 1.05267,-1.59169 1.06101,-2.64166zM228.11483,182.93252l34.60889,0.27477l-0.07621,9.59969l-21.7493,-0.17267l-0.0439,5.52982l18.6094,0.14774l-0.07296,9.18971l-18.6094,-0.14774l-0.04843,6.0998l22.15929,0.17593l-0.07621,9.59969l-35.01888,-0.27802zM295.78494,223.49102l-16.65521,-19.56283l-0.15425,19.42938l-11.79962,-0.09368l0.31772,-40.01872l11.21964,0.08908l16.6529,19.85282l0.15656,-19.71937l11.80962,0.09376l-0.31772,40.01872z" stroke-linecap="round"/>
</g>
</g>
</g>
<g transform="matrix(0.999968 0.007939 -0.007939 0.999968 93.10347 181.170553)" id="79a5ea4e-6df4-4a21-8d0b-6e955dcf4d6d">

</g>
<g transform="matrix(0.999968 0.007939 -0.007939 0.999968 93.10347 181.170553)" id="15f7da77-0162-49f5-951a-07a6668c9003">

</g>

  </svg>